<svg width="153" height="36" viewBox="0 0 153 36" fill="none" xmlns="http://www.w3.org/2000/svg">
<path d="M24.1383 20.7032C25.1491 20.7032 25.9685 21.5225 25.9685 22.5333V23.2258C25.9685 24.619 24.839 25.7485 23.4458 25.7485H23.1985C20.6923 25.7485 18.9281 24.7922 17.9059 22.8796C16.2571 25.2208 13.7674 26.3915 10.4368 26.3915C8.14779 26.3915 5.34208 28.0414 5.34208 30.3305V32.9702C5.34208 34.4453 4.14622 35.6412 2.67104 35.6412C1.19587 35.6412 0 34.4453 0 32.9702V3.68761C0 2.21243 1.19587 1.01656 2.67104 1.01656C4.14622 1.01656 5.34208 2.21243 5.34208 3.68761V15.6578C5.34208 17.4715 5.83672 18.8895 6.82599 19.9117C7.81527 20.901 9.15079 21.3956 10.8326 21.3956C12.7452 21.3956 14.2785 20.8186 15.4327 19.6644C16.5868 18.4773 17.1639 16.6636 17.1639 14.2234V3.68761C17.1639 2.21243 18.3598 1.01656 19.835 1.01656C21.3101 1.01656 22.506 2.21243 22.506 3.6876V19.0708C22.506 19.5655 22.6544 19.9612 22.9512 20.258C23.248 20.5548 23.6437 20.7032 24.1383 20.7032Z" fill="url(#paint0_linear_2235_187)"/>
<path d="M36.3698 15.2251C36.3698 18.032 38.6452 20.3074 41.4521 20.3074H47.7464C49.2489 20.3074 50.4669 21.5255 50.4669 23.0279C50.4669 24.5304 49.2489 25.7485 47.7464 25.7485H40.5742C35.1106 25.7485 30.6814 21.3193 30.6814 15.8557V3.86067C30.6814 2.28988 31.9548 1.0165 33.5256 1.0165C35.0964 1.0165 36.3698 2.28987 36.3698 3.86066V15.2251Z" fill="url(#paint1_linear_2235_187)"/>
<path d="M59.8129 15.6578C58.7621 15.6578 57.9617 16.6419 58.4303 17.5824C58.9174 18.5603 59.6055 19.3698 60.4945 20.0107C61.9125 20.9999 63.6437 21.4946 65.6882 21.4946C67.5877 21.4946 69.1691 21.036 70.4325 20.1187C71.5123 19.3347 72.9583 18.9474 74.1105 19.6205C75.3877 20.3668 75.7849 22.0676 74.7145 23.0887C72.4064 25.2905 69.3812 26.3915 65.6388 26.3915C61.6157 26.3915 58.3676 25.1714 55.8944 22.7312C53.4212 20.258 52.1846 17.1418 52.1846 13.3825C52.1846 9.68921 53.4047 6.60597 55.8449 4.13278C58.2851 1.62662 61.4179 0.373535 65.243 0.373535C68.8704 0.373535 71.8382 1.6431 74.1465 4.18224C76.4878 6.72139 77.6584 9.80463 77.6584 13.432C77.6584 14.7152 76.5074 15.6578 75.2242 15.6578H59.8129ZM57.7246 11.305H72.2669C71.9042 9.2935 71.0633 7.77661 69.7442 6.75436C68.4582 5.73211 66.9413 5.22098 65.1936 5.22098C63.215 5.22098 61.5662 5.76509 60.2472 6.85329C58.9282 7.94149 58.0873 9.42541 57.7246 11.305Z" fill="url(#paint2_linear_2235_187)"/>
<path d="M101.802 3.68761C101.802 2.21243 102.998 1.01656 104.473 1.01656C105.948 1.01656 107.144 2.21243 107.144 3.68761V23.0774C107.144 24.5526 105.948 25.7485 104.473 25.7485C102.998 25.7485 101.802 24.5526 101.802 23.0774V22.1871C99.7902 24.99 96.9049 26.3915 93.1456 26.3915C89.7491 26.3915 86.8472 25.1384 84.44 22.6322C82.0328 20.0931 80.8291 17.0099 80.8291 13.3825C80.8291 9.72219 82.0328 6.63895 84.44 4.13278C86.8472 1.62662 89.7491 0.373535 93.1456 0.373535C96.9049 0.373535 99.7902 1.75852 101.802 4.52849V3.68761ZM88.3971 19.0708C89.881 20.5548 91.7441 21.2967 93.9865 21.2967C96.2288 21.2967 98.092 20.5548 99.5759 19.0708C101.06 17.554 101.802 15.6578 101.802 13.3825C101.802 11.1072 101.06 9.22755 99.5759 7.74364C98.092 6.22675 96.2288 5.4683 93.9865 5.4683C91.7441 5.4683 89.881 6.22675 88.3971 7.74364C86.9132 9.22755 86.1712 11.1072 86.1712 13.3825C86.1712 15.6578 86.9132 17.554 88.3971 19.0708Z" fill="url(#paint3_linear_2235_187)"/>
<path d="M118.713 5.17152C119.698 2.93729 121.313 1.51691 123.558 0.91039C125.051 0.507039 126.33 1.82516 126.33 3.37177C126.33 4.98932 124.926 6.20402 123.373 6.65574C122.516 6.9049 121.721 7.30051 120.988 7.84257C119.471 8.93077 118.713 10.7444 118.713 13.2836V23.0774C118.713 24.5526 117.517 25.7485 116.042 25.7485C114.566 25.7485 113.37 24.5526 113.37 23.0774V3.68761C113.37 2.21243 114.566 1.01656 116.042 1.01656C117.517 1.01656 118.713 2.21243 118.713 3.68761V5.17152Z" fill="url(#paint4_linear_2235_187)"/>
<path d="M143.286 0.373535C146.122 0.373535 148.414 1.28037 150.161 3.09404C151.909 4.90771 152.783 7.39739 152.783 10.5631V23.0774C152.783 24.5526 151.587 25.7485 150.112 25.7485C148.637 25.7485 147.441 24.5526 147.441 23.0774V11.1072C147.441 9.26053 146.946 7.84256 145.957 6.85329C144.968 5.86401 143.616 5.36938 141.901 5.36938C140.021 5.36938 138.505 5.96294 137.35 7.15007C136.196 8.30423 135.619 10.0849 135.619 12.4922V23.0774C135.619 24.5526 134.423 25.7485 132.948 25.7485C131.473 25.7485 130.277 24.5526 130.277 23.0774V3.68761C130.277 2.21243 131.473 1.01656 132.948 1.01656C134.423 1.01656 135.619 2.21243 135.619 3.68761V4.18224C137.235 1.6431 139.791 0.373535 143.286 0.373535Z" fill="url(#paint5_linear_2235_187)"/>
<defs>
<linearGradient id="paint0_linear_2235_187" x1="-15.2216" y1="-2.4262" x2="2.28484" y2="70.2957" gradientUnits="userSpaceOnUse">
<stop stop-color="#2E85FE"/>
<stop offset="0.940047" stop-color="#AF2EE6"/>
</linearGradient>
<linearGradient id="paint1_linear_2235_187" x1="-15.2216" y1="-2.4262" x2="2.28484" y2="70.2957" gradientUnits="userSpaceOnUse">
<stop stop-color="#2E85FE"/>
<stop offset="0.940047" stop-color="#AF2EE6"/>
</linearGradient>
<linearGradient id="paint2_linear_2235_187" x1="-15.2216" y1="-2.4262" x2="2.28484" y2="70.2957" gradientUnits="userSpaceOnUse">
<stop stop-color="#2E85FE"/>
<stop offset="0.940047" stop-color="#AF2EE6"/>
</linearGradient>
<linearGradient id="paint3_linear_2235_187" x1="-15.2216" y1="-2.4262" x2="2.28484" y2="70.2957" gradientUnits="userSpaceOnUse">
<stop stop-color="#2E85FE"/>
<stop offset="0.940047" stop-color="#AF2EE6"/>
</linearGradient>
<linearGradient id="paint4_linear_2235_187" x1="-15.2216" y1="-2.4262" x2="2.28484" y2="70.2957" gradientUnits="userSpaceOnUse">
<stop stop-color="#2E85FE"/>
<stop offset="0.940047" stop-color="#AF2EE6"/>
</linearGradient>
<linearGradient id="paint5_linear_2235_187" x1="-15.2216" y1="-2.4262" x2="2.28484" y2="70.2957" gradientUnits="userSpaceOnUse">
<stop stop-color="#2E85FE"/>
<stop offset="0.940047" stop-color="#AF2EE6"/>
</linearGradient>
</defs>
</svg>
